inDegrees=no
DataType=double
version=3
OpenSimVersion=4.4-2022-10-11-798caa840
endheader
time	elv_angle	shoulder_elv	shoulder_rot	elbow_flexion	pro_sup	deviation	flexion
2.4020851434	0.3312713719	0.7851288061	0.9415081097	1.3092662963	0.0000000000	0.0000000000	0.0000000000
2.4062554301	0.3313129993	0.7851616698	0.9416264191	1.3092334326	0.0000000000	0.0000000000	0.0000000000
2.4104257168	0.3313511759	0.7851918092	0.9417349210	1.3092032932	0.0000000000	0.0000000000	0.0000000000
2.4145960035	0.3313860363	0.7852193306	0.9418339979	1.3091757718	0.0000000000	0.0000000000	0.0000000000
2.4187662902	0.3314177169	0.7852443416	0.9419240376	1.3091507608	0.0000000000	0.0000000000	0.0000000000
2.4229365769	0.3314463565	0.7852669518	0.9420054342	1.3091281506	0.0000000000	0.0000000000	0.0000000000
2.4271068636	0.3314720957	0.7852872722	0.9420785877	1.3091078302	0.0000000000	0.0000000000	0.0000000000
2.4312771503	0.3314950773	0.7853054155	0.9421439038	1.3090896869	0.0000000000	0.0000000000	0.0000000000
2.4354474370	0.3315154462	0.7853214963	0.9422017944	1.3090736061	0.0000000000	0.0000000000	0.0000000000
2.4396177237	0.3315333495	0.7853356304	0.9422526775	1.3090594719	0.0000000000	0.0000000000	0.0000000000
2.4437880104	0.3315489363	0.7853479358	0.9422969768	1.3090471666	0.0000000000	0.0000000000	0.0000000000
2.4479582971	0.3315623579	0.7853585318	0.9423351225	1.3090365706	0.0000000000	0.0000000000	0.0000000000
2.4521285838	0.3315737678	0.7853675396	0.9423675505	1.3090275628	0.0000000000	0.0000000000	0.0000000000
2.4562988705	0.3315833215	0.7853750820	0.9423947031	1.3090200204	0.0000000000	0.0000000000	0.0000000000
2.4604691573	0.3315911767	0.7853812836	0.9424170286	1.3090138188	0.0000000000	0.0000000000	0.0000000000
2.4646394440	0.3315974935	0.7853862705	0.9424349816	1.3090088319	0.0000000000	0.0000000000	0.0000000000
2.4688097307	0.3316024339	0.7853901708	0.9424490228	1.3090049316	0.0000000000	0.0000000000	0.0000000000
2.4729800174	0.3316061623	0.7853931142	0.9424596191	1.3090019882	0.0000000000	0.0000000000	0.0000000000
2.4771503041	0.3316088450	0.7853952322	0.9424672437	1.3089998702	0.0000000000	0.0000000000	0.0000000000
2.4813205908	0.3316106509	0.7853966579	0.9424723762	1.3089984445	0.0000000000	0.0000000000	0.0000000000
2.4854908775	0.3316117508	0.7853975263	0.9424755024	1.3089975761	0.0000000000	0.0000000000	0.0000000000
2.4896611642	0.3316123180	0.7853979740	0.9424771143	1.3089971284	0.0000000000	0.0000000000	0.0000000000
2.4938314509	0.3316125278	0.7853981397	0.9424777106	1.3089969627	0.0000000000	0.0000000000	0.0000000000
2.4980017376	0.3316125579	0.7853981634	0.9424777961	1.3089969390	0.0000000000	0.0000000000	0.0000000000
2.5021720243	0.3316125579	0.7853981634	0.9424777961	1.3089969390	0.0000000000	0.0000000000	0.0000000000
2.5063423110	0.3316125579	0.7853981634	0.9424777961	1.3089969390	0.0000000000	0.0000000000	0.0000000000
2.5105125977	0.3316125579	0.7853981634	0.9424777961	1.3089969390	0.0000000000	0.0000000000	0.0000000000
2.5146828844	0.3316125579	0.7853981634	0.9424777961	1.3089969390	0.0000000000	0.0000000000	0.0000000000
2.5188531712	0.3316125579	0.7853981634	0.9424777961	1.3089969390	0.0000000000	0.0000000000	0.0000000000
2.5230234579	0.3316125579	0.7853981634	0.9424777961	1.3089969390	0.0000000000	0.0000000000	0.0000000000
2.5271937446	0.3316125579	0.7853981634	0.9424777961	1.3089969390	0.0000000000	0.0000000000	0.0000000000
2.5313640313	0.3316125579	0.7853981634	0.9424777961	1.3089969390	0.0000000000	0.0000000000	0.0000000000
2.5355343180	0.3316125579	0.7853981634	0.9424777961	1.3089969390	0.0000000000	0.0000000000	0.0000000000
2.5397046047	0.3316125579	0.7853981634	0.9424777961	1.3089969390	0.0000000000	0.0000000000	0.0000000000
2.5438748914	0.3316125579	0.7853981634	0.9424777961	1.3089969390	0.0000000000	0.0000000000	0.0000000000
2.5480451781	0.3316125579	0.7853981634	0.9424777961	1.3089969390	0.0000000000	0.0000000000	0.0000000000
2.5522154648	0.3316125579	0.7853981634	0.9424777961	1.3089969390	0.0000000000	0.0000000000	0.0000000000
2.5563857515	0.3316125579	0.7853981634	0.9424777961	1.3089969390	0.0000000000	0.0000000000	0.0000000000
2.5605560382	0.3316125579	0.7853981634	0.9424777961	1.3089969390	0.0000000000	0.0000000000	0.0000000000
2.5647263249	0.3316125579	0.7853981634	0.9424777961	1.3089969390	0.0000000000	0.0000000000	0.0000000000
2.5688966116	0.3316125579	0.7853981634	0.9424777961	1.3089969390	0.0000000000	0.0000000000	0.0000000000
2.5730668983	0.3316125579	0.7853981634	0.9424777961	1.3089969390	0.0000000000	0.0000000000	0.0000000000
2.5772371851	0.3316125579	0.7853981634	0.9424777961	1.3089969390	0.0000000000	0.0000000000	0.0000000000
2.5814074718	0.3316125579	0.7853981634	0.9424777961	1.3089969390	0.0000000000	0.0000000000	0.0000000000
2.5855777585	0.3316125579	0.7853981634	0.9424777961	1.3089969390	0.0000000000	0.0000000000	0.0000000000
2.5897480452	0.3316125579	0.7853981634	0.9424777961	1.3089969390	0.0000000000	0.0000000000	0.0000000000
2.5939183319	0.3316125579	0.7853981634	0.9424777961	1.3089969390	0.0000000000	0.0000000000	0.0000000000
2.5980886186	0.3316125579	0.7853981634	0.9424777961	1.3089969390	0.0000000000	0.0000000000	0.0000000000
2.6022589053	0.3316125579	0.7853981634	0.9424777961	1.3089969390	0.0000000000	0.0000000000	0.0000000000
2.6064291920	0.3316125579	0.7853981634	0.9424777961	1.3089969390	0.0000000000	0.0000000000	0.0000000000
2.6105994787	0.3316125579	0.7853981634	0.9424777961	1.3089969390	0.0000000000	0.0000000000	0.0000000000
2.6147697654	0.3316125579	0.7853981634	0.9424777961	1.3089969390	0.0000000000	0.0000000000	0.0000000000
2.6189400521	0.3316125579	0.7853981634	0.9424777961	1.3089969390	0.0000000000	0.0000000000	0.0000000000
2.6231103388	0.3316125579	0.7853981634	0.9424777961	1.3089969390	0.0000000000	0.0000000000	0.0000000000
2.6272806255	0.3316125579	0.7853981634	0.9424777961	1.3089969390	0.0000000000	0.0000000000	0.0000000000
2.6314509123	0.3316125579	0.7853981634	0.9424777961	1.3089969390	0.0000000000	0.0000000000	0.0000000000
2.6356211990	0.3316125579	0.7853981634	0.9424777961	1.3089969390	0.0000000000	0.0000000000	0.0000000000
2.6397914857	0.3316125579	0.7853981634	0.9424777961	1.3089969390	0.0000000000	0.0000000000	0.0000000000
2.6439617724	0.3316125579	0.7853981634	0.9424777961	1.3089969390	0.0000000000	0.0000000000	0.0000000000
2.6481320591	0.3316125579	0.7853981634	0.9424777961	1.3089969390	0.0000000000	0.0000000000	0.0000000000
2.6523023458	0.3316125579	0.7853981634	0.9424777961	1.3089969390	0.0000000000	0.0000000000	0.0000000000
2.6564726325	0.3316125579	0.7853981634	0.9424777961	1.3089969390	0.0000000000	0.0000000000	0.0000000000
2.6606429192	0.3316125579	0.7853981634	0.9424777961	1.3089969390	0.0000000000	0.0000000000	0.0000000000
2.6648132059	0.3316125579	0.7853981634	0.9424777961	1.3089969390	0.0000000000	0.0000000000	0.0000000000
2.6689834926	0.3316125579	0.7853981634	0.9424777961	1.3089969390	0.0000000000	0.0000000000	0.0000000000
2.6731537793	0.3316125579	0.7853981634	0.9424777961	1.3089969390	0.0000000000	0.0000000000	0.0000000000
2.6773240660	0.3316125579	0.7853981634	0.9424777961	1.3089969390	0.0000000000	0.0000000000	0.0000000000
2.6814943527	0.3316125579	0.7853981634	0.9424777961	1.3089969390	0.0000000000	0.0000000000	0.0000000000
2.6856646394	0.3316125579	0.7853981634	0.9424777961	1.3089969390	0.0000000000	0.0000000000	0.0000000000
2.6898349262	0.3316125579	0.7853981634	0.9424777961	1.3089969390	0.0000000000	0.0000000000	0.0000000000
2.6940052129	0.3316125579	0.7853981634	0.9424777961	1.3089969390	0.0000000000	0.0000000000	0.0000000000
2.6981754996	0.3316125579	0.7853981634	0.9424777961	1.3089969390	0.0000000000	0.0000000000	0.0000000000
2.7023457863	0.3316125579	0.7853981634	0.9424777961	1.3089969390	0.0000000000	0.0000000000	0.0000000000
2.7065160730	0.3316125579	0.7853981634	0.9424777961	1.3089969390	0.0000000000	0.0000000000	0.0000000000
2.7106863597	0.3316125579	0.7853981634	0.9424777961	1.3089969390	0.0000000000	0.0000000000	0.0000000000
2.7148566464	0.3316125579	0.7853981634	0.9424777961	1.3089969390	0.0000000000	0.0000000000	0.0000000000
2.7190269331	0.3316125579	0.7853981634	0.9424777961	1.3089969390	0.0000000000	0.0000000000	0.0000000000
2.7231972198	0.3316125579	0.7853981634	0.9424777961	1.3089969390	0.0000000000	0.0000000000	0.0000000000
2.7273675065	0.3316125579	0.7853981634	0.9424777961	1.3089969390	0.0000000000	0.0000000000	0.0000000000
2.7315377932	0.3316125579	0.7853981634	0.9424777961	1.3089969390	0.0000000000	0.0000000000	0.0000000000
2.7357080799	0.3316125579	0.7853981634	0.9424777961	1.3089969390	0.0000000000	0.0000000000	0.0000000000
2.7398783666	0.3316125579	0.7853981634	0.9424777961	1.3089969390	0.0000000000	0.0000000000	0.0000000000
2.7440486533	0.3316125579	0.7853981634	0.9424777961	1.3089969390	0.0000000000	0.0000000000	0.0000000000
2.7482189401	0.3316125579	0.7853981634	0.9424777961	1.3089969390	0.0000000000	0.0000000000	0.0000000000
2.7523892268	0.3316125579	0.7853981634	0.9424777961	1.3089969390	0.0000000000	0.0000000000	0.0000000000
2.7565595135	0.3316125579	0.7853981634	0.9424777961	1.3089969390	0.0000000000	0.0000000000	0.0000000000
